# xmcd CD database file
#
# Track frame offsets:
#	150
#	40044
#	87198
#	129790
#	177908
#	256498
#	306745
#
# Disc length: 4610 seconds
#
# Revision: 0
# Processed by: cddbd v1.5.2PL0 Copyright (c) Steve Scherf et al.
# Submitted via: CDex 1.70beta2
#
DISCID=56120007
DTITLE=Dizzy Gillespie - All Star Sessions
DYEAR=1957
DGENRE=Jazz
TTITLE0=Wheatleigh Hall
TTITLE1=Sumphin'
TTITLE2=Con Alma
TTITLE3=Haute Mon'
TTITLE4=Steeplechase
TTITLE5=Tour de Force
TTITLE6=I'm Through with Love and The Nearness of You and Moonlight in Vermont and Summertime
EXTD=YEAR: 1957
EXTT0=
EXTT1=
EXTT2=
EXTT3=
EXTT4=
EXTT5=
EXTT6=
PLAYORDER=
